<svg data-v-423bf9ae="" xmlns="http://www.w3.org/2000/svg" viewBox="0 0 494 90" class="iconLeft"><!----><!----><!----><g data-v-423bf9ae="" id="c35e298d-3bbe-424d-91b3-ec7048a3c1e8" fill="black" transform="matrix(4.204625129699707,0,0,4.204625129699707,111.20623779296875,14.369304656982422)"><path d="M2.41 5.92L2.41 5.92L2.41 5.92Q2.41 7.49 3.43 8.55L3.43 8.55L3.43 8.55Q4.46 9.60 5.98 9.60L5.98 9.60L5.98 9.60Q6.78 9.60 7.54 9.29L7.54 9.29L7.54 9.29Q8.28 8.95 8.89 8.36L8.89 8.36L9.44 9.00L9.44 9.00Q8.57 9.91 7.54 10.39L7.54 10.39L7.54 10.39Q6.52 10.87 5.29 10.87L5.29 10.87L5.29 10.87Q3.17 10.87 1.83 9.53L1.83 9.53L1.83 9.53Q0.50 8.20 0.50 6.02L0.50 6.02L0.50 6.02Q0.50 3.92 2.07 2.54L2.07 2.54L2.07 2.54Q3.63 1.17 6.05 1.17L6.05 1.17L6.05 1.17Q7.07 1.17 7.76 1.33L7.76 1.33L7.76 1.33Q8.45 1.49 9.04 1.73L9.04 1.73L8.76 2.76L8.76 2.76Q8.66 3.19 8.60 3.79L8.60 3.79L8.11 3.74L7.96 2.87L7.96 2.87Q7.51 2.57 6.91 2.42L6.91 2.42L6.91 2.42Q6.31 2.26 5.68 2.26L5.68 2.26L5.68 2.26Q4.17 2.26 3.29 3.24L3.29 3.24L3.29 3.24Q2.41 4.22 2.41 5.92ZM18.00 7.03L18.00 7.03L18.00 7.03Q18.00 8.75 16.93 9.79L16.93 9.79L16.93 9.79Q15.86 10.84 14.08 10.84L14.08 10.84L14.08 10.84Q12.33 10.84 11.26 9.79L11.26 9.79L11.26 9.79Q10.19 8.75 10.19 7.03L10.19 7.03L10.19 7.03Q10.19 5.33 11.27 4.27L11.27 4.27L11.27 4.27Q12.34 3.22 14.08 3.22L14.08 3.22L14.08 3.22Q15.86 3.22 16.93 4.27L16.93 4.27L16.93 4.27Q18.00 5.31 18.00 7.03ZM16.26 7.03L16.26 7.03L16.26 7.03Q16.26 5.71 15.67 4.90L15.67 4.90L15.67 4.90Q15.08 4.09 14.08 4.09L14.08 4.09L14.08 4.09Q13.09 4.09 12.51 4.89L12.51 4.89L12.51 4.89Q11.93 5.70 11.93 7.03L11.93 7.03L11.93 7.03Q11.93 8.33 12.52 9.15L12.52 9.15L12.52 9.15Q13.11 9.97 14.08 9.97L14.08 9.97L14.08 9.97Q15.06 9.97 15.66 9.17L15.66 9.17L15.66 9.17Q16.26 8.36 16.26 7.03ZM23.89 10.68L23.89 9.48L23.89 9.48Q23.42 10.20 22.86 10.52L22.86 10.52L22.86 10.52Q22.29 10.84 21.67 10.84L21.67 10.84L21.67 10.84Q20.30 10.84 19.46 9.88L19.46 9.88L19.46 9.88Q18.62 8.92 18.62 7.39L18.62 7.39L18.62 7.39Q18.62 5.54 19.73 4.38L19.73 4.38L19.73 4.38Q20.84 3.22 22.60 3.22L22.60 3.22L22.60 3.22Q22.96 3.22 23.23 3.28L23.23 3.28L23.77 3.35L23.77 3.42L23.73 1.99L23.73 1.99Q23.73 1.68 23.71 1.52L23.71 1.52L23.71 1.52Q23.69 1.36 23.64 1.22L23.64 1.22L22.76 1.05L22.76 0.56L24.93 0.20L25.53 0.20L25.44 1.25L25.40 2.12L25.40 7.98L25.40 7.98Q25.40 8.38 25.42 8.75L25.42 8.75L25.42 8.75Q25.44 9.11 25.45 9.33L25.45 9.33L25.45 9.33Q25.45 9.78 25.56 10.04L25.56 10.04L25.56 10.04Q25.66 10.04 25.72 10.06L25.72 10.06L25.72 10.06Q25.77 10.07 25.93 10.10L25.93 10.10L26.31 10.20L26.31 10.68L25.10 10.64L23.89 10.68ZM23.79 6.84L23.79 6.84L23.79 4.48L23.79 4.48Q23.67 4.40 23.35 4.28L23.35 4.28L23.35 4.28Q23.02 4.17 22.46 4.17L22.46 4.17L22.46 4.17Q21.41 4.17 20.89 4.85L20.89 4.85L20.89 4.85Q20.37 5.53 20.37 6.85L20.37 6.85L20.37 6.85Q20.37 8.15 20.84 8.90L20.84 8.90L20.84 8.90Q21.30 9.65 22.21 9.65L22.21 9.65L22.21 9.65Q23.03 9.65 23.41 8.92L23.41 8.92L23.41 8.92Q23.79 8.19 23.79 6.84ZM27.69 1.12L27.69 1.12L27.69 1.12Q27.69 0.73 27.98 0.44L27.98 0.44L27.98 0.44Q28.26 0.15 28.66 0.15L28.66 0.15L28.66 0.15Q29.05 0.15 29.33 0.44L29.33 0.44L29.33 0.44Q29.62 0.73 29.62 1.12L29.62 1.12L29.62 1.12Q29.62 1.53 29.33 1.81L29.33 1.81L29.33 1.81Q29.05 2.10 28.66 2.10L28.66 2.10L28.66 2.10Q28.26 2.10 27.98 1.81L27.98 1.81L27.98 1.81Q27.69 1.53 27.69 1.12ZM29.48 5.09L29.48 7.94L29.48 7.94Q29.48 8.35 29.49 8.72L29.49 8.72L29.49 8.72Q29.50 9.08 29.55 9.53L29.55 9.53L29.55 9.53Q29.60 9.98 29.62 10.04L29.62 10.04L30.37 10.20L30.37 10.68L28.66 10.64L26.94 10.68L26.94 10.20L27.69 10.04L27.76 9.39L27.76 9.39Q27.79 9.09 27.81 8.70L27.81 8.70L27.81 8.70Q27.83 8.32 27.83 7.94L27.83 7.94L27.83 6.41L27.83 6.21L27.83 6.03L27.83 5.89L27.83 5.89Q27.83 5.35 27.79 4.98L27.79 4.98L27.79 4.98Q27.79 4.72 27.76 4.52L27.76 4.52L27.76 4.52Q27.74 4.31 27.70 4.21L27.70 4.21L26.82 4.04L26.82 3.55L26.82 3.55Q27.14 3.51 27.41 3.49L27.41 3.49L27.41 3.49Q27.68 3.46 27.90 3.41L27.90 3.41L29.00 3.17L29.61 3.17L29.50 4.22L29.48 5.09ZM38.13 5.43L38.13 7.94L38.13 7.94Q38.13 8.35 38.14 8.72L38.14 8.72L38.14 8.72Q38.15 9.08 38.20 9.53L38.20 9.53L38.20 9.53Q38.25 9.98 38.27 10.04L38.27 10.04L39.02 10.20L39.02 10.68L37.32 10.64L36.51 10.68L36.51 10.20L36.50 10.04L36.50 6.43L36.50 6.43Q36.50 5.40 36.19 4.90L36.19 4.90L36.19 4.90Q35.91 4.40 35.16 4.40L35.16 4.40L35.16 4.40Q34.41 4.40 33.95 5.04L33.95 5.04L33.95 5.04Q33.53 5.67 33.53 6.73L33.53 6.73L33.53 7.94L33.53 7.94Q33.53 8.42 33.54 8.75L33.54 8.75L33.54 8.75Q33.55 9.08 33.60 9.39L33.60 9.39L33.67 10.04L34.42 10.20L34.42 10.68L32.72 10.64L31.00 10.68L31.00 10.20L31.75 10.04L31.82 9.39L31.82 9.39Q31.85 9.09 31.87 8.70L31.87 8.70L31.87 8.70Q31.90 8.32 31.90 7.94L31.90 7.94L31.90 6.40L31.90 6.22L31.90 6.06L31.90 6.06Q31.90 5.81 31.88 5.55L31.88 5.55L31.88 5.55Q31.87 5.28 31.84 5.03L31.84 5.03L31.77 4.19L30.88 4.02L30.88 3.54L30.88 3.54Q31.19 3.54 31.44 3.50L31.44 3.50L31.44 3.50Q31.81 3.43 31.99 3.41L31.99 3.41L31.99 3.41Q32.49 3.32 32.61 3.30L32.61 3.30L32.61 3.30Q32.73 3.28 33.10 3.17L33.10 3.17L33.59 3.17L33.53 4.48L33.53 4.48Q34.06 3.84 34.68 3.53L34.68 3.53L34.68 3.53Q35.30 3.22 36.01 3.22L36.01 3.22L36.01 3.22Q36.97 3.22 37.55 3.82L37.55 3.82L37.55 3.82Q38.13 4.43 38.13 5.43L38.13 5.43ZM42.68 4.22L42.68 4.22L42.68 4.22Q41.95 4.22 41.48 4.74L41.48 4.74L41.48 4.74Q41.01 5.27 41.01 6.08L41.01 6.08L41.01 6.08Q41.01 6.87 41.47 7.38L41.47 7.38L41.47 7.38Q41.93 7.88 42.68 7.88L42.68 7.88L42.68 7.88Q43.37 7.88 43.87 7.36L43.87 7.36L43.87 7.36Q44.11 7.10 44.23 6.78L44.23 6.78L44.23 6.78Q44.36 6.46 44.36 6.08L44.36 6.08L44.36 6.08Q44.36 5.22 43.91 4.73L43.91 4.73L43.91 4.73Q43.48 4.22 42.68 4.22ZM39.33 6.05L39.33 6.05L39.33 6.05Q39.33 4.87 40.28 4.11L40.28 4.11L40.28 4.11Q41.23 3.35 42.68 3.35L42.68 3.35L42.68 3.35Q42.81 3.35 42.94 3.35L42.94 3.35L42.94 3.35Q43.07 3.35 43.19 3.38L43.19 3.38L43.24 3.40L43.66 3.46L43.66 3.46Q44.14 3.54 44.48 3.59L44.48 3.59L44.48 3.59Q44.82 3.63 45.16 3.67L45.16 3.67L45.16 3.67Q45.50 3.67 46.04 3.70L46.04 3.70L46.04 3.70Q46.58 3.73 46.67 3.73L46.67 3.73L46.68 3.96L46.68 4.21L46.22 4.33L46.22 4.33Q46.04 4.37 45.84 4.41L45.84 4.41L45.84 4.41Q45.65 4.44 45.49 4.44L45.49 4.44L45.40 4.44L45.40 4.44Q46.03 5.10 46.03 6.05L46.03 6.05L46.03 6.05Q46.03 7.15 45.06 7.94L45.06 7.94L45.06 7.94Q44.09 8.73 42.68 8.73L42.68 8.73L42.68 8.73Q41.88 8.73 41.48 8.60L41.48 8.60L41.48 8.60Q41.48 8.67 41.25 9.11L41.25 9.11L41.25 9.11Q41.13 9.38 41.07 9.59L41.07 9.59L41.07 9.59Q41.01 9.79 41.01 9.98L41.01 9.98L41.38 9.87L41.38 9.87Q41.62 9.78 41.97 9.74L41.97 9.74L41.97 9.74Q42.32 9.70 42.88 9.70L42.88 9.70L42.88 9.70Q44.36 9.70 45.39 10.21L45.39 10.21L45.39 10.21Q46.42 10.71 46.42 11.78L46.42 11.78L46.42 11.78Q46.42 12.92 45.21 13.67L45.21 13.67L45.21 13.67Q44.00 14.42 42.42 14.42L42.42 14.42L42.42 14.42Q41.00 14.42 40.06 13.86L40.06 13.86L40.06 13.86Q39.13 13.30 39.13 12.49L39.13 12.49L39.13 12.49Q39.13 12.09 39.31 11.83L39.31 11.83L39.31 11.83Q39.40 11.71 39.50 11.61L39.50 11.61L39.50 11.61Q39.55 11.55 39.72 11.40L39.72 11.40L40.55 11.87L40.45 12.11L40.45 12.11Q40.45 12.55 41.12 13.01L41.12 13.01L41.12 13.01Q41.46 13.24 41.92 13.36L41.92 13.36L41.92 13.36Q42.37 13.48 42.98 13.48L42.98 13.48L42.98 13.48Q43.58 13.48 44.15 13.16L44.15 13.16L44.15 13.16Q44.72 12.84 44.72 12.31L44.72 12.31L44.72 12.31Q44.72 11.64 43.76 11.27L43.76 11.27L43.76 11.27Q43.37 11.12 42.70 11.12L42.70 11.12L42.70 11.12Q42.29 11.12 41.79 11.18L41.79 11.18L41.79 11.18Q41.29 11.25 40.71 11.38L40.71 11.38L39.80 10.40L39.80 10.40Q39.80 10.27 40.20 9.37L40.20 9.37L40.20 9.37Q40.61 8.47 40.64 8.32L40.64 8.32L40.22 8.04L40.22 8.04Q39.33 7.33 39.33 6.05ZM58.62 8.47L58.62 8.47L58.62 3.82L58.50 1.98L57.61 1.83L57.61 1.35L59.15 1.38L60.65 1.35L60.65 1.83L59.79 1.98L59.68 3.82L59.68 10.78L58.19 10.78L57.99 10.49L53.40 3.53L53.40 8.20L53.43 9.25L53.43 9.25Q53.43 9.52 53.46 9.73L53.46 9.73L53.46 9.73Q53.49 9.95 53.52 10.04L53.52 10.04L54.42 10.20L54.42 10.68L52.88 10.64L51.38 10.68L51.38 10.20L52.23 10.04L52.34 8.20L52.34 3.56L52.31 2.60L52.23 1.98L51.38 1.83L51.38 1.35L53.13 1.38L53.94 1.38L53.94 1.38Q55.13 3.25 56.27 4.93L56.27 4.93L56.27 4.93Q56.66 5.52 57.05 6.09L57.05 6.09L57.05 6.09Q57.64 6.97 57.83 7.27L57.83 7.27L57.83 7.27Q58.36 8.07 58.62 8.47ZM67.03 8.42L67.56 8.92L67.56 8.92Q67.31 9.28 66.97 9.60L66.97 9.60L66.97 9.60Q66.64 9.93 66.16 10.23L66.16 10.23L66.16 10.23Q65.22 10.84 64.16 10.84L64.16 10.84L64.16 10.84Q62.45 10.84 61.47 9.85L61.47 9.85L61.47 9.85Q60.49 8.86 60.49 7.11L60.49 7.11L60.49 7.11Q60.49 5.50 61.65 4.36L61.65 4.36L61.65 4.36Q62.80 3.22 64.44 3.22L64.44 3.22L64.44 3.22Q65.78 3.22 66.61 4.02L66.61 4.02L66.61 4.02Q67.44 4.83 67.44 6.08L67.44 6.08L67.44 6.49L62.33 6.49L62.33 6.49Q62.33 8.03 62.88 8.84L62.88 8.84L62.88 8.84Q63.43 9.65 64.63 9.65L64.63 9.65L64.63 9.65Q65.45 9.65 66.09 9.21L66.09 9.21L66.09 9.21Q66.72 8.77 67.03 8.42L67.03 8.42ZM62.37 5.79L62.37 5.79L65.67 5.64L65.67 5.48L65.67 5.48Q65.67 4.77 65.34 4.38L65.34 4.38L65.34 4.38Q65.01 4.00 64.33 4.00L64.33 4.00L64.33 4.00Q63.43 4.00 62.86 4.67L62.86 4.67L62.86 4.67Q62.53 5.10 62.37 5.79ZM74.90 3.85L74.19 4.00L74.19 4.00Q73.57 4.69 73.06 5.37L73.06 5.37L72.00 6.76L74.38 10.01L75.16 10.15L75.16 10.68L73.48 10.64L71.81 10.68L71.81 10.21L72.36 10.03L70.83 7.69L70.07 8.85L69.37 10.07L70 10.20L70 10.68L68.70 10.64L67.39 10.68L67.39 10.16L68.03 10.04L69.23 8.57L70.37 7.08L68.11 4.00L67.39 3.86L67.39 3.38L69.00 3.42L70.63 3.38L70.63 3.85L70.15 4.00L71.51 6.16L72.91 4.00L72.47 3.86L72.47 3.38L73.68 3.42L74.90 3.38L74.90 3.85ZM82.83 3.22L82.77 4.35L82.77 8.04L82.78 9.33L82.78 9.33Q82.78 9.48 82.80 9.58L82.80 9.58L82.80 9.58Q82.81 9.67 82.89 10.04L82.89 10.04L83.65 10.20L83.64 10.68L82.46 10.64L81.21 10.68L81.21 9.32L81.21 9.32Q80.70 10.08 80.04 10.46L80.04 10.46L80.04 10.46Q79.38 10.84 78.64 10.84L78.64 10.84L78.64 10.84Q77.71 10.84 77.09 10.22L77.09 10.22L77.09 10.22Q76.47 9.60 76.47 8.65L76.47 8.65L76.47 6.05L76.47 6.05Q76.47 5.52 76.42 5.00L76.42 5.00L76.42 5.00Q76.42 4.72 76.39 4.51L76.39 4.51L76.39 4.51Q76.35 4.30 76.34 4.23L76.34 4.23L75.46 4.06L75.46 3.57L75.46 3.57Q75.74 3.57 75.88 3.56L75.88 3.56L75.88 3.56Q76.02 3.55 76.55 3.44L76.55 3.44L76.55 3.44Q77.11 3.37 77.63 3.22L77.63 3.22L78.23 3.22L78.11 5.64L78.11 7.55L78.11 7.55Q78.11 8.59 78.42 9.12L78.42 9.12L78.42 9.12Q78.73 9.65 79.38 9.65L79.38 9.65L79.38 9.65Q80.22 9.65 80.68 8.91L80.68 8.91L80.68 8.91Q81.14 8.17 81.14 6.92L81.14 6.92L81.14 6.05L81.14 6.05Q81.14 5.81 81.13 5.55L81.13 5.55L81.13 5.55Q81.12 5.29 81.08 5.00L81.08 5.00L81.01 4.23L80.13 4.06L80.13 3.57L80.13 3.57Q80.38 3.57 80.59 3.54L80.59 3.54L80.59 3.54Q80.79 3.51 81.16 3.44L81.16 3.44L81.16 3.44Q81.68 3.37 82.21 3.22L82.21 3.22L82.83 3.22ZM90.89 8.40L90.89 8.40L90.89 8.40Q90.89 9.38 89.88 10.12L89.88 10.12L89.88 10.12Q88.87 10.85 87.46 10.85L87.46 10.85L87.46 10.85Q86.53 10.85 85.76 10.63L85.76 10.63L85.76 10.63Q84.99 10.41 84.29 9.98L84.29 9.98L84.29 9.98Q84.42 9.83 84.59 9.61L84.59 9.61L84.59 9.61Q84.76 9.39 84.89 9.21L84.89 9.21L84.89 9.21Q85.02 9.03 85.17 8.81L85.17 8.81L85.17 8.81Q85.26 8.65 85.39 8.40L85.39 8.40L85.83 8.63L85.67 9.31L85.67 9.31Q85.88 9.50 86.41 9.71L86.41 9.71L86.41 9.71Q86.91 9.89 87.68 9.89L87.68 9.89L87.68 9.89Q88.35 9.89 88.80 9.61L88.80 9.61L88.80 9.61Q89.25 9.33 89.25 8.81L89.25 8.81L89.25 8.81Q89.25 8.29 88.71 8.04L88.71 8.04L88.71 8.04Q88.44 7.92 88.06 7.79L88.06 7.79L88.06 7.79Q87.68 7.65 87.23 7.51L87.23 7.51L87.23 7.51Q86.28 7.27 85.53 6.81L85.53 6.81L85.53 6.81Q84.79 6.35 84.79 5.39L84.79 5.39L84.79 5.39Q84.79 4.47 85.75 3.84L85.75 3.84L85.75 3.84Q86.72 3.22 87.99 3.22L87.99 3.22L87.99 3.22Q88.72 3.22 89.45 3.35L89.45 3.35L89.45 3.35Q89.75 3.41 90.02 3.47L90.02 3.47L90.02 3.47Q90.29 3.54 90.53 3.62L90.53 3.62L89.95 5.23L89.46 5.15L89.46 4.58L89.46 4.58Q89.16 4.41 88.65 4.25L88.65 4.25L88.65 4.25Q88.13 4.09 87.69 4.09L87.69 4.09L87.69 4.09Q87.03 4.09 86.68 4.36L86.68 4.36L86.68 4.36Q86.34 4.61 86.34 5.05L86.34 5.05L86.34 5.05Q86.34 5.39 86.74 5.67L86.74 5.67L86.74 5.67Q87.15 5.93 88.16 6.17L88.16 6.17L88.16 6.17Q89.68 6.51 90.29 7.04L90.29 7.04L90.29 7.04Q90.89 7.57 90.89 8.40Z"></path></g><!----><g data-v-423bf9ae="" id="8f2d2dde-8d49-4b1b-b117-f09b3713a2aa" transform="matrix(2.7842154502868652,0,0,2.7842154502868652,0.3457302153110504,0.9999998807907104)" stroke="none" fill="black"><path d="M5.78 16L16 5.78 26.22 16 16 26.22z"></path><path d="M32 3.714A3.714 3.714 0 0 0 28.286 0c-1.659 0-3.047 1.095-3.524 2.596H7.238C6.761 1.095 5.373 0 3.714 0A3.714 3.714 0 0 0 0 3.714a3.7 3.7 0 0 0 2.597 3.524v17.524A3.7 3.7 0 0 0 0 28.286 3.714 3.714 0 0 0 3.714 32c1.506 0 2.795-.9 3.378-2.188h17.816A3.707 3.707 0 0 0 28.286 32a3.709 3.709 0 1 0 1.526-7.093V7.092A3.707 3.707 0 0 0 32 3.714zm-3.188 20.911c-.173-.025-.346-.053-.526-.053a3.714 3.714 0 0 0-3.714 3.714c0 .18.028.353.053.526H7.375c.025-.173.053-.346.053-.526a3.714 3.714 0 0 0-3.714-3.714c-.04 0-.077.01-.117.012V7.416c.04.001.077.012.117.012a3.714 3.714 0 0 0 3.714-3.714c0-.04-.011-.078-.012-.117h17.168c-.001.04-.012.077-.012.117a3.714 3.714 0 0 0 3.714 3.714c.18 0 .352-.028.526-.053v17.25z"></path></g><!----></svg>