<?xml version="1.0" encoding="utf-8"?>
<!-- Generator: Adobe Illustrator 25.0.1, SVG Export Plug-In . SVG Version: 6.00 Build 0)  -->
<svg version="1.1" id="Layer_1" xmlns="http://www.w3.org/2000/svg" xmlns:xlink="http://www.w3.org/1999/xlink" x="0px" y="0px"
	 viewBox="0 0 300 300" style="enable-background:new 0 0 300 300;" xml:space="preserve">
<style type="text/css">
	.st0{fill:#F1F1F1;}
</style>
<g id="_x31_41219b3-cbcd-4020-91c2-fd413e3717b9" transform="matrix(1.838661789894104,0,0,1.838661789894104,92.88403338438638,136.60534861683254)">
	<path class="st0" d="M2.4-2.3L2.4-2.3L2.4-2.3c0,1,0.3,1.9,1,2.6l0,0l0,0C4.1,1,5,1.4,6,1.4l0,0l0,0C6.5,1.4,7,1.2,7.5,1l0,0l0,0
		C8,0.8,8.5,0.5,8.9,0.1l0,0l0.5,0.6l0,0C8.9,1.4,8.2,1.8,7.5,2.1l0,0l0,0C6.9,2.5,6.1,2.6,5.3,2.6l0,0l0,0c-1.4,0-2.6-0.4-3.5-1.3
		l0,0l0,0C0.9,0.4,0.5-0.8,0.5-2.2l0,0l0,0c0-1.4,0.5-2.6,1.6-3.5l0,0l0,0c1-0.9,2.4-1.4,4-1.4l0,0l0,0c0.7,0,1.2,0.1,1.7,0.2l0,0
		l0,0C8.2-6.8,8.6-6.7,9-6.5l0,0l-0.3,1l0,0c-0.1,0.3-0.1,0.6-0.2,1l0,0L8.1-4.5L8-5.4l0,0C7.7-5.6,7.3-5.7,6.9-5.8l0,0l0,0
		C6.5-5.9,6.1-6,5.7-6l0,0l0,0c-1,0-1.8,0.3-2.4,1l0,0l0,0C2.7-4.4,2.4-3.5,2.4-2.3z M18-1.2L18-1.2L18-1.2c0,1.1-0.4,2.1-1.1,2.8
		l0,0l0,0c-0.7,0.7-1.7,1.1-2.9,1.1l0,0l0,0c-1.2,0-2.1-0.3-2.8-1.1l0,0l0,0c-0.7-0.7-1.1-1.6-1.1-2.8l0,0l0,0
		c0-1.1,0.4-2.1,1.1-2.8l0,0l0,0c0.7-0.7,1.7-1,2.8-1l0,0l0,0c1.2,0,2.1,0.3,2.9,1l0,0l0,0C17.6-3.3,18-2.4,18-1.2z M16.3-1.2
		L16.3-1.2L16.3-1.2c0-0.9-0.2-1.6-0.6-2.1l0,0l0,0c-0.4-0.5-0.9-0.8-1.6-0.8l0,0l0,0c-0.7,0-1.2,0.3-1.6,0.8l0,0l0,0
		c-0.4,0.5-0.6,1.3-0.6,2.1l0,0l0,0c0,0.9,0.2,1.6,0.6,2.1l0,0l0,0c0.4,0.5,0.9,0.8,1.6,0.8l0,0l0,0c0.7,0,1.2-0.3,1.6-0.8l0,0l0,0
		C16.1,0.4,16.3-0.3,16.3-1.2z M23.9,2.4V1.2l0,0c-0.3,0.5-0.7,0.8-1,1l0,0l0,0c-0.4,0.2-0.8,0.3-1.2,0.3l0,0l0,0
		c-0.9,0-1.6-0.3-2.2-1l0,0l0,0c-0.6-0.6-0.8-1.5-0.8-2.5l0,0l0,0c0-1.2,0.4-2.2,1.1-3l0,0l0,0C20.5-4.6,21.4-5,22.6-5l0,0l0,0
		C22.8-5,23-5,23.2-5l0,0l0.5,0.1v0.1l0-1.4l0,0c0-0.2,0-0.4,0-0.5l0,0l0,0c0-0.1,0-0.2-0.1-0.3l0,0l-0.9-0.2v-0.5L24.9-8h0.6
		l-0.1,1l0,0.9v5.9l0,0c0,0.3,0,0.5,0,0.8l0,0l0,0c0,0.2,0,0.4,0,0.6l0,0l0,0c0,0.3,0,0.5,0.1,0.7l0,0l0,0c0.1,0,0.1,0,0.2,0l0,0
		l0,0c0,0,0.1,0,0.2,0l0,0L26.3,2v0.5l-1.2,0L23.9,2.4z M23.8-1.4L23.8-1.4v-2.4l0,0c-0.1-0.1-0.2-0.1-0.4-0.2l0,0l0,0
		c-0.2-0.1-0.5-0.1-0.9-0.1l0,0l0,0c-0.7,0-1.2,0.2-1.6,0.7l0,0l0,0c-0.3,0.5-0.5,1.1-0.5,2l0,0l0,0c0,0.9,0.2,1.5,0.5,2l0,0l0,0
		c0.3,0.5,0.8,0.7,1.4,0.7l0,0l0,0c0.5,0,0.9-0.2,1.2-0.7l0,0l0,0C23.7,0.2,23.8-0.5,23.8-1.4z M27.7-7.1L27.7-7.1L27.7-7.1
		c0-0.3,0.1-0.5,0.3-0.7l0,0l0,0c0.2-0.2,0.4-0.3,0.7-0.3l0,0l0,0c0.3,0,0.5,0.1,0.7,0.3l0,0l0,0c0.2,0.2,0.3,0.4,0.3,0.7l0,0l0,0
		c0,0.3-0.1,0.5-0.3,0.7l0,0l0,0c-0.2,0.2-0.4,0.3-0.7,0.3l0,0l0,0c-0.3,0-0.5-0.1-0.7-0.3l0,0l0,0C27.8-6.6,27.7-6.9,27.7-7.1z
		 M29.5-3.2v2.8l0,0c0,0.3,0,0.5,0,0.8l0,0l0,0c0,0.2,0,0.5,0.1,0.8l0,0l0,0c0,0.3,0.1,0.5,0.1,0.5l0,0L30.4,2v0.5l-1.7,0l-1.7,0V2
		l0.8-0.2l0.1-0.6l0,0c0-0.2,0-0.4,0-0.7l0,0l0,0c0-0.3,0-0.5,0-0.8l0,0v-1.5V-2v-0.2v-0.1l0,0c0-0.4,0-0.7,0-0.9l0,0l0,0
		c0-0.2,0-0.3,0-0.5l0,0l0,0c0-0.1,0-0.2-0.1-0.3l0,0l-0.9-0.2v-0.5l0,0c0.2,0,0.4,0,0.6-0.1l0,0l0,0c0.2,0,0.3,0,0.5-0.1l0,0
		L29-5.1h0.6l-0.1,1L29.5-3.2z M38.1-2.8v2.5l0,0c0,0.3,0,0.5,0,0.8l0,0l0,0c0,0.2,0,0.5,0.1,0.8l0,0l0,0c0,0.3,0.1,0.5,0.1,0.5l0,0
		L39,2v0.5l-1.7,0l-0.8,0V2l0-0.2v-3.6l0,0c0-0.7-0.1-1.2-0.3-1.5l0,0l0,0c-0.2-0.3-0.5-0.5-1-0.5l0,0l0,0c-0.5,0-0.9,0.2-1.2,0.6
		l0,0l0,0c-0.3,0.4-0.4,1-0.4,1.7l0,0v1.2l0,0c0,0.3,0,0.6,0,0.8l0,0l0,0c0,0.2,0,0.4,0.1,0.6l0,0l0.1,0.6L34.4,2v0.5l-1.7,0l-1.7,0
		V2l0.8-0.2l0.1-0.6l0,0c0-0.2,0-0.4,0.1-0.7l0,0l0,0c0-0.3,0-0.5,0-0.8l0,0v-1.5V-2v-0.2l0,0c0-0.2,0-0.3,0-0.5l0,0l0,0
		c0-0.2,0-0.4,0-0.5l0,0l-0.1-0.8l-0.9-0.2v-0.5l0,0c0.2,0,0.4,0,0.6,0l0,0l0,0c0.2,0,0.4-0.1,0.5-0.1l0,0l0,0
		c0.3-0.1,0.5-0.1,0.6-0.1l0,0l0,0c0.1,0,0.2-0.1,0.5-0.1l0,0h0.5l-0.1,1.3l0,0c0.4-0.4,0.7-0.7,1.2-1l0,0l0,0C35.1-4.9,35.5-5,36-5
		l0,0l0,0c0.6,0,1.2,0.2,1.5,0.6l0,0l0,0C37.9-4,38.1-3.5,38.1-2.8L38.1-2.8z M42.7-4L42.7-4L42.7-4c-0.5,0-0.9,0.2-1.2,0.5l0,0l0,0
		C41.2-3.2,41-2.7,41-2.2l0,0l0,0c0,0.5,0.2,1,0.5,1.3l0,0l0,0c0.3,0.3,0.7,0.5,1.2,0.5l0,0l0,0c0.5,0,0.9-0.2,1.2-0.5l0,0l0,0
		c0.2-0.2,0.3-0.4,0.4-0.6l0,0l0,0c0.1-0.2,0.1-0.4,0.1-0.7l0,0l0,0c0-0.6-0.1-1-0.5-1.3l0,0l0,0C43.6-3.9,43.2-4,42.7-4z M39.3-2.2
		L39.3-2.2L39.3-2.2c0-0.8,0.3-1.4,0.9-1.9l0,0l0,0c0.6-0.5,1.4-0.8,2.4-0.8l0,0l0,0c0.1,0,0.2,0,0.3,0l0,0l0,0c0.1,0,0.2,0,0.2,0
		l0,0l0.1,0l0.4,0.1l0,0c0.3,0.1,0.6,0.1,0.8,0.1l0,0l0,0c0.2,0,0.5,0.1,0.7,0.1l0,0l0,0c0.2,0,0.5,0,0.9,0l0,0l0,0
		c0.4,0,0.6,0,0.6,0l0,0l0,0.2V-4l-0.5,0.1l0,0c-0.1,0-0.2,0.1-0.4,0.1l0,0l0,0c-0.1,0-0.2,0-0.3,0l0,0h-0.1l0,0
		c0.4,0.4,0.6,1,0.6,1.6l0,0l0,0c0,0.7-0.3,1.4-1,1.9l0,0l0,0c-0.6,0.5-1.4,0.8-2.4,0.8l0,0l0,0c-0.5,0-0.9,0-1.2-0.1l0,0l0,0
		c0,0-0.1,0.2-0.2,0.5l0,0l0,0c-0.1,0.2-0.1,0.3-0.2,0.5l0,0l0,0C41,1.5,41,1.6,41,1.7l0,0l0.4-0.1l0,0c0.2-0.1,0.4-0.1,0.6-0.1l0,0
		l0,0c0.2,0,0.5,0,0.9,0l0,0l0,0c1,0,1.8,0.2,2.5,0.5l0,0l0,0c0.7,0.3,1,0.9,1,1.6l0,0l0,0c0,0.8-0.4,1.4-1.2,1.9l0,0l0,0
		c-0.8,0.5-1.7,0.8-2.8,0.8l0,0l0,0c-0.9,0-1.7-0.2-2.4-0.6l0,0l0,0c-0.6-0.4-0.9-0.8-0.9-1.4l0,0l0,0c0-0.3,0.1-0.5,0.2-0.7l0,0
		l0,0c0.1-0.1,0.1-0.2,0.2-0.2l0,0l0,0c0,0,0.1-0.1,0.2-0.2l0,0l0.8,0.5l-0.1,0.2l0,0c0,0.3,0.2,0.6,0.7,0.9l0,0l0,0
		c0.2,0.2,0.5,0.3,0.8,0.3l0,0l0,0c0.3,0.1,0.7,0.1,1.1,0.1l0,0l0,0c0.4,0,0.8-0.1,1.2-0.3l0,0l0,0c0.4-0.2,0.6-0.5,0.6-0.8l0,0l0,0
		c0-0.4-0.3-0.8-1-1l0,0l0,0c-0.3-0.1-0.6-0.2-1.1-0.2l0,0l0,0c-0.3,0-0.6,0-0.9,0.1l0,0l0,0c-0.3,0-0.7,0.1-1.1,0.2l0,0l-0.9-1l0,0
		c0-0.1,0.1-0.4,0.4-1l0,0l0,0c0.3-0.6,0.4-0.9,0.4-1.1l0,0l-0.4-0.3l0,0C39.6-0.7,39.3-1.3,39.3-2.2z M58.6,0.2L58.6,0.2v-4.7
		l-0.1-1.8l-0.9-0.2v-0.5l1.5,0l1.5,0v0.5l-0.9,0.2l-0.1,1.8v7h-1.5L58,2.2l-4.6-7V0l0,1.1l0,0c0,0.2,0,0.3,0,0.5l0,0l0,0
		c0,0.1,0,0.2,0.1,0.3l0,0L54.4,2v0.5l-1.5,0l-1.5,0V2l0.8-0.2L52.3,0v-4.6l0-1l-0.1-0.6l-0.8-0.2v-0.5l1.8,0h0.8l0,0
		c0.8,1.2,1.6,2.4,2.3,3.5l0,0l0,0c0.3,0.4,0.5,0.8,0.8,1.2l0,0l0,0c0.4,0.6,0.7,1,0.8,1.2l0,0l0,0C58.2-0.4,58.4,0,58.6,0.2z
		 M67,0.2l0.5,0.5l0,0c-0.2,0.2-0.4,0.5-0.6,0.7l0,0l0,0c-0.2,0.2-0.5,0.4-0.8,0.6l0,0l0,0c-0.6,0.4-1.3,0.6-2,0.6l0,0l0,0
		c-1.1,0-2-0.3-2.7-1l0,0l0,0c-0.7-0.7-1-1.6-1-2.7l0,0l0,0c0-1.1,0.4-2,1.2-2.7l0,0l0,0C62.4-4.6,63.3-5,64.4-5l0,0l0,0
		c0.9,0,1.6,0.3,2.2,0.8l0,0l0,0c0.6,0.5,0.8,1.2,0.8,2.1l0,0v0.4h-5.1l0,0c0,1,0.2,1.8,0.5,2.4l0,0l0,0c0.4,0.5,0.9,0.8,1.7,0.8
		l0,0l0,0c0.5,0,1-0.1,1.5-0.4l0,0l0,0C66.5,0.7,66.8,0.4,67,0.2L67,0.2z M62.4-2.5L62.4-2.5l3.3-0.2v-0.2l0,0
		c0-0.5-0.1-0.8-0.3-1.1l0,0l0,0c-0.2-0.3-0.6-0.4-1-0.4l0,0l0,0c-0.6,0-1.1,0.2-1.5,0.7l0,0l0,0C62.6-3.3,62.5-2.9,62.4-2.5z
		 M74.9-4.4l-0.7,0.2l0,0c-0.4,0.5-0.8,0.9-1.1,1.4l0,0L72-1.5l2.4,3.2l0.8,0.1v0.5l-1.7,0l-1.7,0V2l0.6-0.2l-1.5-2.3l-0.8,1.2
		l-0.7,1.2L70,2v0.5l-1.3,0l-1.3,0V1.9L68,1.8l1.2-1.5l1.1-1.5l-2.3-3.1l-0.7-0.1v-0.5l1.6,0l1.6,0v0.5l-0.5,0.2l1.4,2.2l1.4-2.2
		l-0.4-0.1v-0.5l1.2,0l1.2,0V-4.4z M82.8-5l-0.1,1.1v3.7l0,1.3l0,0c0,0.1,0,0.2,0,0.2l0,0l0,0c0,0.1,0,0.2,0.1,0.5l0,0L83.6,2l0,0.5
		l-1.2,0l-1.2,0V1.1l0,0C80.9,1.6,80.5,2,80,2.2l0,0l0,0c-0.4,0.3-0.9,0.4-1.4,0.4l0,0l0,0c-0.6,0-1.1-0.2-1.6-0.6l0,0l0,0
		c-0.4-0.4-0.6-0.9-0.6-1.6l0,0v-2.6l0,0c0-0.4,0-0.7-0.1-1l0,0l0,0c0-0.2,0-0.3,0-0.5l0,0l0,0c0-0.1,0-0.2-0.1-0.3l0,0l-0.9-0.2
		v-0.5l0,0c0.2,0,0.3,0,0.4,0l0,0l0,0c0.1,0,0.3,0,0.7-0.1l0,0l0,0c0.4,0,0.7-0.1,1.1-0.2l0,0h0.6l-0.1,2.4v1.9l0,0
		c0,0.7,0.1,1.2,0.3,1.6l0,0l0,0c0.2,0.4,0.5,0.5,1,0.5l0,0l0,0c0.6,0,1-0.2,1.3-0.7l0,0l0,0c0.3-0.5,0.5-1.2,0.5-2l0,0v-0.9l0,0
		c0-0.2,0-0.3,0-0.5l0,0l0,0c0-0.2,0-0.4,0-0.5l0,0L81-4l-0.9-0.2v-0.5l0,0c0.2,0,0.3,0,0.5,0l0,0l0,0c0.1,0,0.3-0.1,0.6-0.1l0,0
		l0,0c0.3,0,0.7-0.1,1-0.2l0,0H82.8z M90.9,0.2L90.9,0.2L90.9,0.2c0,0.7-0.3,1.2-1,1.7l0,0l0,0c-0.7,0.5-1.5,0.7-2.4,0.7l0,0l0,0
		c-0.6,0-1.2-0.1-1.7-0.2l0,0l0,0c-0.5-0.1-1-0.4-1.5-0.7l0,0l0,0c0.1-0.1,0.2-0.2,0.3-0.4l0,0l0,0c0.1-0.1,0.2-0.3,0.3-0.4l0,0l0,0
		c0.1-0.1,0.2-0.3,0.3-0.4l0,0l0,0c0.1-0.1,0.1-0.2,0.2-0.4l0,0l0.4,0.2l-0.2,0.7l0,0c0.1,0.1,0.4,0.3,0.7,0.4l0,0l0,0
		c0.3,0.1,0.8,0.2,1.3,0.2l0,0l0,0c0.4,0,0.8-0.1,1.1-0.3l0,0l0,0c0.3-0.2,0.4-0.5,0.4-0.8l0,0l0,0c0-0.3-0.2-0.6-0.5-0.8l0,0l0,0
		c-0.2-0.1-0.4-0.2-0.7-0.2l0,0l0,0c-0.3-0.1-0.5-0.2-0.8-0.3l0,0l0,0c-0.6-0.2-1.2-0.4-1.7-0.7l0,0l0,0c-0.5-0.3-0.7-0.8-0.7-1.4
		l0,0l0,0c0-0.6,0.3-1.1,1-1.5l0,0l0,0C86.4-4.8,87.1-5,88-5l0,0l0,0c0.5,0,1,0,1.5,0.1l0,0l0,0c0.2,0,0.4,0.1,0.6,0.1l0,0l0,0
		c0.2,0,0.3,0.1,0.5,0.2l0,0L89.9-3l-0.5-0.1v-0.6l0,0C89.3-3.8,89-3.9,88.6-4l0,0l0,0c-0.3-0.1-0.7-0.2-1-0.2l0,0l0,0
		c-0.4,0-0.8,0.1-1,0.3l0,0l0,0c-0.2,0.2-0.3,0.4-0.3,0.7l0,0l0,0c0,0.2,0.1,0.4,0.4,0.6l0,0l0,0c0.3,0.2,0.7,0.3,1.4,0.5l0,0l0,0
		c1,0.2,1.7,0.5,2.1,0.9l0,0l0,0C90.7-0.9,90.9-0.4,90.9,0.2z"/>
</g>
<g id="_x38_557a55d-66bf-4947-a9d0-8c25d4e0749f" transform="matrix(1.2175236940383911,0,0,1.2175236940383911,40,130.32172198374738)">
	<path class="st0" d="M5.8,3.5L16-6.7L26.2,3.5L16,13.8L5.8,3.5z"/>
	<path class="st0" d="M32-8.7c0-2.1-1.7-3.7-3.7-3.7c0,0,0,0,0,0c-1.7,0-3,1.1-3.5,2.6H7.2c-0.5-1.5-1.9-2.6-3.5-2.6
		C1.7-12.5,0-10.8,0-8.7c0,0,0,0,0,0c0,1.6,1.1,3,2.6,3.5v17.5C1.1,12.8,0,14.2,0,15.8c0,2.1,1.7,3.7,3.7,3.7c0,0,0,0,0,0
		c1.5,0,2.8-0.9,3.4-2.2h17.8c0.6,1.3,1.9,2.2,3.4,2.2c1.9,0.8,4.1,0,4.9-1.9c0.8-1.9,0-4.1-1.9-4.9c-0.5-0.2-1-0.3-1.5-0.3V-5.4
		C31.1-6,32-7.3,32-8.7z M28.8,12.2c-0.2,0-0.3-0.1-0.5-0.1c-2.1,0-3.7,1.7-3.7,3.7l0,0c0,0.2,0,0.4,0.1,0.5H7.4
		c0-0.2,0.1-0.3,0.1-0.5c0-2.1-1.7-3.7-3.7-3.7c0,0,0,0,0,0c0,0-0.1,0-0.1,0V-5c0,0,0.1,0,0.1,0c2.1,0,3.7-1.7,3.7-3.7l0,0
		c0,0,0-0.1,0-0.1h17.2c0,0,0,0.1,0,0.1c0,2.1,1.7,3.7,3.7,3.7l0,0c0.2,0,0.4,0,0.5-0.1V12.2z"/>
</g>
</svg>
